<?xml version="1.0" encoding="iso-8859-1"?>
<!-- Generator: Adobe Illustrator 19.0.0, SVG Export Plug-In . SVG Version: 6.00 Build 0)  -->
<svg version="1.1" id="Capa_1" xmlns="http://www.w3.org/2000/svg" xmlns:xlink="http://www.w3.org/1999/xlink" x="0px" y="0px"
	 viewBox="0 0 511.999 511.999" style="enable-background:new 0 0 511.999 511.999;" xml:space="preserve">
<g>
	<g>
		<path d="M256,0C154.759,0,72.395,82.365,72.395,183.605c0,39.42,12.296,76.972,35.565,108.629L256,511.999l148.04-219.766
			c23.269-31.657,35.565-69.209,35.565-108.629C439.604,82.365,357.241,0,256,0z M379.512,274.637l-0.786,1.072l-0.147,0.294
			L256,457.969L133.421,276.003l-0.158-0.316l-0.775-1.048c-19.565-26.497-29.908-57.976-29.908-91.032
			c0-84.597,68.824-153.42,153.419-153.42s153.419,68.824,153.419,153.419C409.419,216.661,399.077,248.14,379.512,274.637z"/>
	</g>
</g>
<g>
	<g>
		<path d="M299.738,90.558c-18.047,0-33.213,10.04-43.093,18.914c-9.848-8.877-24.939-18.915-42.837-18.915
			c-0.139,0-0.282,0.001-0.421,0.002c-32.02,0.281-58.069,27.672-58.069,61.06c0,15.892,5.76,29.97,17.119,41.844l84.191,84.498
			l83.977-84.279l0.214-0.219c11.36-11.874,17.119-25.953,17.119-41.845C357.94,117.951,331.83,90.558,299.738,90.558z
			 M319.107,172.495l-62.477,62.702l-62.478-62.702c-5.899-6.207-8.647-12.844-8.647-20.875c0-16.889,12.628-30.739,28.149-30.875
			c0.049,0,0.099-0.001,0.148-0.001c12.852,0,26.852,14.677,30.726,19.799l12.095,16.233l12.104-16.226
			c3.833-5.138,17.756-19.804,31.012-19.804c15.448,0,28.016,13.85,28.016,30.875C327.754,159.65,325.005,166.287,319.107,172.495z"
			/>
	</g>
</g>
<g>
</g>
<g>
</g>
<g>
</g>
<g>
</g>
<g>
</g>
<g>
</g>
<g>
</g>
<g>
</g>
<g>
</g>
<g>
</g>
<g>
</g>
<g>
</g>
<g>
</g>
<g>
</g>
<g>
</g>
</svg>
